# xmcd
#
# Track frame offsets:
#	150
#	11977
#	32917
#
# Disc length: 673 seconds
#
# Revision: 0
# Processed by: cddbd v1.4PL0 Copyright (c) Steve Scherf et al.
# Submitted via: dBpowerAMP V4.0
#
DISCID=20029f03
DTITLE=Sherrie Austin - Little Bird Single
DYEAR=1900
DGENRE=
TTITLE0=Little Bird
TTITLE1=Never Been Kissed (Extended Mix)
TTITLE2=Litle Bird (Extended Mix)
EXTD=
EXTT0=
EXTT1=
EXTT2=
PLAYORDER=
